HIERARCHY
ROOT Hips
{
	OFFSET	0.00	0.00	0.00
	CHANNELS 6 Xposition Yposition Zposition Zrotation Xrotation Yrotation
	JOINT LeftUpLeg
	{
		OFFSET	 0.126116	-0.065224	 0.014019
		CHANNELS 3 Zrotation Xrotation Yrotation
		JOINT LeftLeg
		{
			OFFSET	 0.000000	 0.569914	 0.000000
			CHANNELS 3 Zrotation Xrotation Yrotation
			JOINT LeftFoot
			{
				OFFSET	 0.000000	 0.544423	 0.000000
				CHANNELS 3 Zrotation Xrotation Yrotation
				JOINT LeftToeBase
				{
					OFFSET	 0.000000	 0.207117	 0.000000
					CHANNELS 3 Zrotation Xrotation Yrotation
					End Site
					{
						OFFSET	 0.000000	 0.207117	 0.000000
					}
				}
			}
		}
	}
	JOINT RightUpLeg
	{
		OFFSET	-0.124023	-0.065224	 0.008373
		CHANNELS 3 Zrotation Xrotation Yrotation
		JOINT RightLeg
		{
			OFFSET	 0.000000	 0.570047	 0.000000
			CHANNELS 3 Zrotation Xrotation Yrotation
			JOINT RightFoot
			{
				OFFSET	 0.000000	 0.544354	 0.000000
				CHANNELS 3 Zrotation Xrotation Yrotation
				JOINT RightToeBase
				{
					OFFSET	 0.000000	 0.207540	 0.000000
					CHANNELS 3 Zrotation Xrotation Yrotation
					End Site
					{
						OFFSET	 0.000000	 0.207540	 0.000000
					}
				}
			}
		}
	}
	JOINT Spine
	{
		OFFSET	 0.000184	 0.117403	 0.007763
		CHANNELS 3 Zrotation Xrotation Yrotation
		JOINT Spine1
		{
			OFFSET	 0.000000	 0.137269	 0.000000
			CHANNELS 3 Zrotation Xrotation Yrotation
			JOINT Spine2
			{
				OFFSET	 0.000000	 0.156879	 0.000000
				CHANNELS 3 Zrotation Xrotation Yrotation
				JOINT LeftShoulder
				{
					OFFSET	 0.080501	 0.160143	 0.002496
					CHANNELS 3 Zrotation Xrotation Yrotation
					JOINT LeftArm
					{
						OFFSET	 0.000000	 0.164363	 0.000000
						CHANNELS 3 Zrotation Xrotation Yrotation
						JOINT LeftForeArm
						{
							OFFSET	 0.000000	 0.364576	 0.000000
							CHANNELS 3 Zrotation Xrotation Yrotation
							JOINT LeftHand
							{
								OFFSET	 0.000000	 0.360812	 0.000000
								CHANNELS 3 Zrotation Xrotation Yrotation
								JOINT LeftHandIndex1
								{
									OFFSET	 0.000000	 0.086006	 0.000000
									CHANNELS 3 Zrotation Xrotation Yrotation
									JOINT LeftHandIndex2
									{
										OFFSET	 0.000000	 0.047237	 0.000000
										CHANNELS 3 Zrotation Xrotation Yrotation
										JOINT LeftHandIndex3
										{
											OFFSET	-0.004284	 0.038165	 0.000551
											CHANNELS 3 Zrotation Xrotation Yrotation
											End Site
											{
												OFFSET	-0.004284	 0.038165	 0.000551
											}
										}
									}
								}
							}
						}
					}
				}
				JOINT Neck
				{
					OFFSET	 0.000000	 0.176489	 0.000000
					CHANNELS 3 Zrotation Xrotation Yrotation
					JOINT Head
					{
						OFFSET	 0.000000	 0.077941	 0.001747
						CHANNELS 3 Zrotation Xrotation Yrotation
						End Site
						{
							OFFSET	 0.000000	 0.077941	 0.001747
						}
					}
				}
				JOINT RightShoulder
				{
					OFFSET	-0.080363	 0.159706	-0.000306
					CHANNELS 3 Zrotation Xrotation Yrotation
					JOINT RightArm
					{
						OFFSET	 0.000000	 0.164196	 0.000000
						CHANNELS 3 Zrotation Xrotation Yrotation
						JOINT RightForeArm
						{
							OFFSET	 0.000000	 0.365611	 0.000000
							CHANNELS 3 Zrotation Xrotation Yrotation
							JOINT RightHand
							{
								OFFSET	 0.000000	 0.360648	 0.000000
								CHANNELS 3 Zrotation Xrotation Yrotation
								JOINT RightHandIndex1
								{
									OFFSET	 0.000000	 0.069977	 0.000000
									CHANNELS 3 Zrotation Xrotation Yrotation
									JOINT RightHandIndex2
									{
										OFFSET	 0.000000	 0.052305	 0.000000
										CHANNELS 3 Zrotation Xrotation Yrotation
										JOINT RightHandIndex3
										{
											OFFSET	 0.009002	 0.042196	 0.000782
											CHANNELS 3 Zrotation Xrotation Yrotation
											End Site
											{
												OFFSET	 0.009002	 0.042196	 0.000782
											}
										}
									}
								}
							}
						}
					}
				}
			}
		}
	}
}
MOTION
Frames:    9
Frame Time: 0.03333334
 0.000828	 1.269093	-0.011582	 0.376288	 1.995411	 177.754700	 175.999800	 4.188375	 12.877210	 3.538522	-17.360560	 2.902019	-3.581962	 71.604480	 6.696176	 1.331492	 28.938720	-2.729976	-175.242600	 4.384725	-11.757860	-5.108695	-16.371100	-7.498235	-3.104104	 70.119280	 2.164473	-1.308485	 28.618100	 2.417219	-0.989169	 3.249010	-1.235460	-0.722663	 2.244219	-1.086601	-0.936581	-1.412081	 1.076800	-113.435400	 5.427900	 92.961490	 1.490015	 49.673440	 40.931020	 25.374600	-1.270368	 0.202130	-19.233720	-6.868798	-19.087340	-6.580301	 5.266122	 0.000000	 0.000000	 0.000000	 0.000000	 0.000000	 0.000000	 0.000000	 5.023175	-0.488567	 0.241809	 1.745216	 2.420692	 3.092421	 114.285600	-4.872571	-88.065900	-57.651930	 19.386430	 40.476460	-94.815780	-2.245165	-2.383689	-26.145850	-12.672660	-25.134250	-0.376112	 11.051790	 0.747608	 11.984210	 9.776616	-2.194894	-8.364074	 3.403909	 0.088004
 0.007142	 1.268856	-0.007565	 0.250163	 2.192943	 178.479300	 176.109800	 4.201405	 13.592020	 3.532526	-17.332950	 3.289199	-2.902334	 71.447120	 5.614396	 1.331492	 28.938720	-2.729976	-175.151200	 4.417444	-11.103810	-5.118420	-16.400480	-7.495373	-3.240296	 70.094910	 2.193464	-1.302037	 28.534920	 2.570433	-0.995355	 3.420300	-0.792434	-0.852263	 2.655842	-0.795867	-1.016065	-1.348751	 0.714404	-113.437500	 5.480320	 93.011810	 1.736352	 51.376580	 39.453960	 23.406950	-1.177636	 0.160106	-15.056350	-8.237338	-17.757990	-6.580301	 5.266122	 0.000000	 0.000000	 0.000000	 0.000000	 0.000000	 0.000000	 0.000000	 5.198084	-0.393665	-0.038775	 3.368587	 2.003524	 2.372737	 114.276100	-4.804294	-88.100630	-49.902650	 21.011030	 13.744610	-107.719500	-2.146292	-2.880039	-25.692170	-8.432372	-30.065310	-0.468893	 13.684690	 0.767500	 12.035590	 12.352850	-2.753292	-8.390450	 4.824862	-0.002667
 0.013268	 1.268478	-0.003768	 0.106150	 2.384478	 179.184700	 176.166400	 4.291312	 14.290410	 3.536580	-17.351640	 3.668422	-2.252303	 71.256710	 4.573625	 1.331492	 28.938720	-2.729976	-175.065300	 4.516551	-10.472050	-5.165277	-16.542070	-7.499966	-3.340489	 70.117120	 2.213359	-1.295552	 28.454330	 2.718766	-1.011582	 3.592278	-0.194812	-1.097065	 3.065609	-0.345116	-1.046448	-1.276435	 0.359320	-113.439600	 5.531116	 93.060550	 4.712204	 53.930690	 35.796430	 19.036600	-0.966993	 0.078274	-10.257280	-9.348004	-16.027670	-6.580301	 5.266122	 0.000000	 0.000000	 0.000000	 0.000000	 0.000000	 0.000000	 0.000000	 5.367982	-0.302540	-0.310887	 4.932253	 1.583582	 1.688946	 114.266800	-4.738156	-88.134270	-48.016370	 19.600260	-10.210890	-110.319000	-2.112987	-2.976744	-28.418930	-4.564188	-34.505590	-0.560779	 16.235410	 0.791239	 12.110660	 14.848120	-3.302364	-8.413908	 6.201550	-0.090090
 0.016975	 1.268015	-0.000284	-0.144133	 2.488118	 179.982000	 176.010100	 4.523019	 15.199250	 3.510893	-17.233230	 4.411403	-0.481390	 70.971450	 2.387559	 1.331492	 28.938720	-2.729976	-175.100600	 4.843643	-9.499487	-5.322071	-17.014260	-7.307024	-2.866294	 70.409370	 1.617072	-1.293255	 28.427940	 2.800202	-1.001190	 3.750570	 0.124415	-1.287097	 3.434239	-0.116215	-1.145221	-1.233871	-0.012826	-113.440600	 5.376644	 93.012700	 10.010430	 55.977670	 31.750380	 14.237170	-0.729128	 0.007206	-6.252744	-11.171200	-14.979030	-6.580301	 5.266122	 0.000000	 0.000000	 0.000000	 0.000000	 0.000000	 0.000000	 0.000000	 5.081510	-0.252963	-0.471789	 5.093622	 1.240496	 1.209147	 114.250300	-4.624855	-88.204750	-39.219990	 26.661090	-19.834580	-105.948600	-2.166432	-2.813463	-15.447350	-0.131515	-24.471100	-0.673646	 19.280080	 0.825671	 12.234410	 17.825560	-3.971543	-8.437154	 7.702006	-0.185016
 0.019371	 1.267491	 0.002832	-0.398949	 2.570847	-179.245800	 175.785900	 4.796130	 16.094600	 3.483073	-17.104800	 5.176369	 1.353326	 70.628430	 0.176875	 1.331492	 28.938720	-2.729976	-175.168500	 5.213884	-8.526539	-5.512641	-17.584810	-7.106933	-2.286603	 70.778420	 0.947823	-1.291660	 28.410540	 2.868197	-0.987409	 3.895669	 0.310715	-1.408322	 3.755528	-0.008962	-1.272833	-1.193926	-0.367145	-113.441700	 5.200422	 92.953410	 18.346530	 58.017470	 25.260660	 7.312473	-0.377388	-0.059707	-1.638230	-12.767110	-14.218170	-6.580301	 5.266122	 0.000000	 0.000000	 0.000000	 0.000000	 0.000000	 0.000000	 0.000000	 4.743959	-0.210844	-0.608866	 5.045375	 0.925813	 0.780054	 114.233600	-4.510257	-88.277050	-27.484480	 30.389240	-25.781880	-97.110580	-2.235762	-2.473373	-8.140239	 7.213618	-9.563325	-0.787850	 22.249780	 0.866168	 12.393100	 20.728200	-4.642691	-8.457260	 9.148036	-0.276262
 0.021013	 1.266991	 0.005672	-0.524427	 2.728227	-179.167100	 175.722300	 4.874846	 16.232960	 3.482913	-17.104060	 5.440383	 1.893299	 70.464210	-0.534999	 1.331492	 28.938720	-2.729976	-175.115000	 5.467460	-8.356817	-5.678504	-18.078340	-7.423389	-3.188637	 71.031420	 1.849248	-1.291200	 28.407030	 2.915679	-0.966021	 4.040730	 0.307177	-1.457065	 3.872825	-0.063108	-1.342789	-1.032359	-0.627133	-113.443100	 5.083729	 92.924000	 21.165600	 58.157300	 23.549350	 6.106193	-0.315400	-0.067037	-0.707042	-13.091810	-13.747830	-6.580301	 5.266122	 0.000000	 0.000000	 0.000000	 0.000000	 0.000000	 0.000000	 0.000000	 4.420715	-0.171021	-0.712515	 4.941114	 0.778434	 0.488704	 114.219800	-4.414697	-88.338190	-19.022890	 33.268930	-32.653410	-85.683400	-2.246658	-2.024999	-4.261921	 10.478590	 0.466485	-0.831293	 23.348110	 0.883000	 12.461850	 21.801280	-4.896423	-8.464248	 9.692551	-0.310588
 0.021953	 1.266456	 0.008001	-0.458346	 2.992969	 179.849600	 175.904700	 4.747068	 15.216020	 3.538789	-17.361760	 4.922099	 0.416880	 70.578230	 1.048464	 1.331492	 28.938720	-2.729976	-174.815800	 5.565434	-9.424495	-5.813010	-18.476420	-8.494199	-6.353039	 71.049950	 5.098564	-1.292534	 28.424940	 2.928811	-0.944127	 4.181129	 0.248953	-1.503909	 3.828418	-0.125595	-1.272729	-0.763417	-0.730440	-113.444900	 5.065444	 92.942080	 16.410880	 56.165100	 28.423090	 12.614930	-0.647487	-0.012343	-5.100803	-11.620910	-13.287180	-6.580301	 5.266122	 0.000000	 0.000000	 0.000000	 0.000000	 0.000000	 0.000000	 0.000000	 4.140000	-0.138100	-0.758672	 4.762208	 0.896217	 0.426797	 114.211000	-4.354386	-88.378380	-14.839630	 36.102600	-39.449900	-70.208720	-2.120108	-1.431796	-4.922517	 4.161532	 3.622683	-0.759431	 21.521780	 0.855574	 12.350590	 20.016810	-4.476223	-8.452988	 8.826353	-0.255988
 0.022406	 1.266036	 0.010265	-0.369253	 3.270136	 178.816900	 176.097600	 4.543171	 14.143950	 3.586424	-17.580880	 4.379138	-1.077887	 70.694380	 2.695600	 1.331492	 28.938720	-2.729976	-174.535400	 5.593388	-10.542260	-5.927038	-18.812360	-9.587914	-9.578822	 71.007370	 8.424084	-1.293939	 28.443730	 2.942586	-0.913112	 4.327504	 0.065281	-1.443021	 3.670393	-0.315206	-1.246871	-0.428760	-0.839661	-113.446700	 5.046234	 92.961030	 12.674060	 53.998240	 32.361450	 18.184860	-0.925190	 0.064229	-8.934546	-10.045500	-13.023990	-6.580301	 5.266122	 0.000000	 0.000000	 0.000000	 0.000000	 0.000000	 0.000000	 0.000000	 3.845636	-0.103333	-0.806904	 4.574773	 1.019766	 0.362048	 114.201800	-4.291119	-88.420550	-15.981840	 42.543880	-42.627340	-45.271630	-1.601113	-0.609167	-8.058411	-2.135879	 7.370100	-0.685978	 19.606350	 0.829772	 12.249980	 18.144560	-4.044281	-8.440310	 7.917951	-0.198673
 0.022583	 1.266018	 0.011399	-0.323153	 3.422482	 178.285200	 176.203100	 4.383818	 13.614090	 3.587230	-17.584560	 4.061285	-1.910131	 70.673770	 3.631497	 1.331492	 28.938720	-2.729976	-174.424400	 5.515583	-11.109910	-5.941289	-18.854270	-9.963006	-10.733900	 70.918090	 9.571256	-1.295817	 28.467800	 2.938466	-0.886692	 4.380247	 0.032135	-1.345179	 3.680448	-0.343483	-1.232934	-0.367839	-0.868063	-113.447700	 5.016448	 92.962780	 11.562450	 53.277750	 33.790410	 20.158240	-1.021577	 0.097706	-10.540560	-9.436892	-12.779030	-6.580301	 5.266122	 0.000000	 0.000000	 0.000000	 0.000000	 0.000000	 0.000000	 0.000000	 3.663283	-0.138875	-0.821529	 4.397672	 1.045337	 0.372090	 114.196300	-4.253510	-88.447530	-21.614570	 49.249100	-39.955080	-23.906250	-0.913486	-0.134841	-11.911630	-5.642357	 10.379680	-0.630554	 18.130030	 0.811848	 12.183200	 16.701080	-3.716735	-8.429309	 7.176933	-0.151853
